<svg width="473" height="79" viewBox="0 0 473 79" fill="none" xmlns="http://www.w3.org/2000/svg">
<g clip-path="url(#clip0_36_792)">
<path d="M172.1 38.9C172.1 29.9 165.6 22.2 155.8 22.2C146 22.2 139.3 30 139.3 38.9C139.3 47.7 145.8 55.4 155.6 55.4C159.7 55.4 162.9 54.2 165.8 51.9L170.1 55.8L172.5 53.1L168.2 49.6C170.7 46.6 172.1 42.8 172.1 38.9ZM165.6 47.2L159.7 41.9L157.3 44.6L163.2 49.7C161.2 51.1 158.7 52.1 155.9 52.1C148.6 52.1 143.3 46.2 143.3 38.8C143.3 31.5 148.6 25.5 155.9 25.5C163.2 25.5 168.5 31.4 168.5 38.8C168.5 42.1 167.5 45 165.6 47.2ZM202.5 41.3C202.5 48.2 198.8 51.9 192.7 51.9C186.6 51.9 182.9 48 182.9 41.1V22.5H179.2V41.3C179.2 50.5 184.7 55.2 192.7 55.2C200.7 55.2 206.2 50.3 206.2 40.9V22.5H202.5V41.3ZM420 52.1C412.9 52.1 407.6 46.2 407.6 38.8C407.6 31.5 412.9 25.5 420 25.5C424.3 25.5 427.3 27.3 430.2 30L432.6 27.3C429.3 24.2 425.9 22.2 420 22.2C410.6 22.2 403.7 29.7 403.7 38.9C403.7 48.1 410.6 55.4 419.8 55.4C425.7 55.4 429.4 53.2 432.7 49.7L430.3 47.5C427.4 50.3 424.5 52.1 420 52.1ZM442.9 51.5V40.3H460.4V37H442.9V26H462.5V22.7H439.2V55H462.7V51.5H442.9ZM355.3 22.8H343.3V55H347V43.6H354.8C361.7 43.6 367.4 39.9 367.4 33C367.4 26.6 362.7 22.8 355.3 22.8ZM363.7 33.2C363.7 37.5 360.2 40.3 354.9 40.3H346.9V26.2H355.1C360.2 26 363.7 28.5 363.7 33.2ZM123 37C115.9 35.6 114.2 33.7 114.2 30.7C114.2 27.8 116.9 25.6 121.1 25.6C124.4 25.6 127.4 26.6 130.5 29.1L132.5 26.2C129.2 23.5 126 22.3 121.3 22.3C115.2 22.3 110.7 26 110.7 31.1C110.7 36.4 114.2 38.9 121.5 40.5C128.2 41.9 129.9 43.6 129.9 46.6C129.9 49.9 127 52.1 122.8 52.1C118.3 52.1 115 50.7 111.8 47.6L109.6 50.3C113.5 53.8 117.6 55.4 122.7 55.4C129 55.4 133.7 51.7 133.7 46.2C133.4 41.1 130.1 38.7 123 37ZM286.8 40.3H304.3V37H286.8V26H306.4V22.7H283.1V55H306.6V51.5H286.8V40.3ZM325.6 37C318.5 35.6 316.8 33.7 316.8 30.7C316.8 27.8 319.5 25.6 323.7 25.6C327 25.6 330 26.6 333.1 29.1L335.1 26.2C331.8 23.5 328.6 22.3 323.9 22.3C317.8 22.3 313.3 26 313.3 31.1C313.3 36.4 316.8 38.9 324.1 40.5C330.8 41.9 332.5 43.6 332.5 46.6C332.5 49.9 329.6 52.1 325.4 52.1C320.9 52.1 317.6 50.7 314.4 47.6L312.2 50.3C316.1 53.8 320.2 55.4 325.3 55.4C331.6 55.4 336.3 51.7 336.3 46.2C336 41.1 332.7 38.7 325.6 37ZM225.6 22.6L210.9 55H214.6L218.5 46.4H236L239.7 55H243.6L228.9 22.6H225.6ZM219.9 43.2L227.2 26.9L234.5 43.2H219.9ZM382.7 22.6L368 55H371.7L375.6 46.4H393.1L396.8 55H400.7L386 22.6H382.7ZM377 43.2L384.3 26.9L391.6 43.2H377ZM275.4 32.4C275.4 29.7 274.4 27.5 273 25.9C271 23.9 267.9 22.6 263.8 22.6H249.9V54.8H253.6V42.4H262.8L272.2 54.8H276.7L266.9 41.7C271.7 40.7 275.4 37.7 275.4 32.4ZM253.5 39.1V26H263.5C268.6 26 271.7 28.4 271.7 32.3C271.7 36.4 268.2 38.8 263.3 38.8H253.5V39.1ZM22.0001 42.8C23.4001 44.2 25.9001 44.2 27.5001 42.8L51.8001 18.5C54.9001 15.4 59.6001 15.4 62.6001 18.5C64.0001 19.9 66.5001 19.9 68.1001 18.5C69.5001 17.1 69.5001 14.6 68.1001 13C62.2001 7.09999 52.4001 7.09999 46.5001 13L22.0001 37.2C20.4001 38.9 20.4001 41.1 22.0001 42.8ZM59.7001 26.4C61.1001 25 61.1001 22.5 59.7001 20.9C58.3001 19.5 55.8001 19.5 54.2001 20.9L30.0001 45.4C26.9001 48.5 22.2001 48.5 19.2001 45.4C16.1001 42.3 16.1001 37.6 19.2001 34.6L43.1001 10.7C40.0001 7.6 35.3001 7.6 32.3001 10.7L13.9001 29.1C8.0001 35 8.0001 44.8 13.9001 50.7C19.8001 56.6 29.6001 56.6 35.5001 50.7L59.7001 26.4ZM62.6001 29.1L38.1001 53.6C36.7001 55 36.7001 57.5 38.1001 59.1C39.5001 60.5 42.0001 60.5 43.6001 59.1L67.9001 34.8C71.0001 31.7 75.7001 31.7 78.7001 34.8C81.7001 37.9 81.8001 42.6 78.7001 45.6L54.8001 69.3C57.9001 72.4 62.6001 72.4 65.6001 69.3L84.2001 50.7C90.1001 44.8 90.1001 35 84.2001 29.1C78.1001 23.2 68.5001 23.2 62.6001 29.1ZM76.1001 37.2C74.7001 35.8 72.2001 35.8 70.6001 37.2L46.3001 61.7C43.2001 64.8 38.5001 64.8 35.5001 61.7C34.1001 60.3 31.6001 60.3 30.0001 61.7C28.6001 63.1 28.6001 65.6 30.0001 67.2C35.9001 73.1 45.7001 73.1 51.6001 67.2L75.9001 42.9C77.5001 41.1 77.5001 38.9 76.1001 37.2Z" fill="white"/>
</g>
<defs>
<clipPath id="clip0_36_792">
<rect width="473" height="79" fill="white"/>
</clipPath>
</defs>
</svg>
